# File created by Blade
# Date/Time:  Wed Jan 21 15:15:22 2015
# Frame Rate: 120.000 fps
#------------------------------------------------------
:FULLY-SPECIFIED
:DEGREES
580
root 17.419652 35.995021 -18.912158 69.060779 -80.841312 -48.184746
Spine -23.522835 -14.598248 0.107081
Head 10.000981 2.185343 15.355204
LeftShoulder -11.718587 -21.614447 3.493891
LeftArm -11.359665 12.638430 -62.158855
LeftForeArm 0.415997 -0.000000 5.594558
LeftHand -0.753533 0.000000 -4.040166
LeftHandThumb1 -26.253704 0.000000 33.147579
RightShoulder -21.725323 -21.399559 15.736519
RightArm -10.737043 5.314249 71.433104
RightForeArm -24.727641 -0.000000 8.955060
RightHand -6.822804 0.000000 16.018039
RightHandThumb1 -24.326973 -0.000000 -32.862282
LeftUpLeg -15.028201 7.005133 -3.841127
LeftLeg -5.867958 -0.000000 0.000000
LeftFoot -20.670321 14.894983 -13.163692
LeftToeBase 40.545094 -0.000000 -0.000000
RightUpLeg 0.987630 -21.910269 0.638813
RightLeg 136.639474 -0.000000 -0.000000
RightFoot 7.699246 -38.960591 -3.185953
RightToeBase 21.995508 -0.000000 -0.000000
581
root 17.427291 35.998348 -18.925386 69.711021 -80.821600 -48.632932
Spine -23.700235 -14.554396 0.158824
Head 9.863362 2.175218 15.375607
LeftShoulder -11.707832 -21.571584 3.517424
LeftArm -11.416461 12.647047 -62.071763
LeftForeArm 0.325294 -0.000000 5.498283
LeftHand -0.731034 -0.000000 -3.886451
LeftHandThumb1 -26.253704 0.000000 33.147579
RightShoulder -21.754593 -21.481301 15.588085
RightArm -10.792634 5.255763 71.312419
RightForeArm -25.129234 -0.000000 8.991131
RightHand -6.863710 -0.000000 16.488272
RightHandThumb1 -24.326973 -0.000000 -32.862282
LeftUpLeg -15.256359 6.874243 -3.751173
LeftLeg -5.826022 -0.000000 0.000000
LeftFoot -20.526129 15.033029 -12.973433
LeftToeBase 39.815368 -0.000000 -0.000000
RightUpLeg 1.132258 -21.466484 0.669984
RightLeg 136.461074 -0.000000 -0.000000
RightFoot 7.675059 -38.975576 -3.116674
RightToeBase 22.063075 -0.000000 -0.000000
582
root 17.435645 36.000314 -18.936404 70.269511 -80.799487 -48.985871
Spine -23.871794 -14.506702 0.220090
Head 9.706855 2.159373 15.360154
LeftShoulder -11.694186 -21.582044 3.539285
LeftArm -11.512032 12.582354 -61.963469
LeftForeArm 0.531235 0.000000 5.444871
LeftHand -0.980931 -0.000000 -3.945695
LeftHandThumb1 -26.253704 0.000000 33.147579
RightShoulder -21.791156 -21.529791 15.384723
RightArm -10.893801 5.261628 71.195118
RightForeArm -25.656118 -0.000000 9.073462
RightHand -6.806393 -0.000000 16.675525
RightHandThumb1 -24.326973 -0.000000 -32.862282
LeftUpLeg -15.491045 6.666729 -3.656501
LeftLeg -5.769580 -0.000000 0.000000
LeftFoot -20.333458 15.229480 -12.760422
LeftToeBase 38.740829 -0.000000 -0.000000
RightUpLeg 1.303422 -20.973246 0.679899
RightLeg 136.279450 -0.000000 -0.000000
RightFoot 7.750601 -39.080520 -3.293463
RightToeBase 22.198536 -0.000000 -0.000000
583
root 17.441792 36.001593 -18.945614 71.112654 -80.815664 -49.668637
Spine -23.991433 -14.396844 0.245996
Head 9.553500 2.138226 15.376236
LeftShoulder -11.669923 -21.567597 3.571941
LeftArm -11.587852 12.536612 -61.888379
LeftForeArm 0.511180 -0.000000 5.367595
LeftHand -0.975516 -0.000000 -3.901781
LeftHandThumb1 -26.253704 0.000000 33.147579
RightShoulder -21.852508 -21.603154 15.203099
RightArm -10.930983 5.210846 71.081378
RightForeArm -26.185414 -0.000000 9.143466
RightHand -6.825100 -0.000000 16.883398
RightHandThumb1 -24.326973 -0.000000 -32.862282
LeftUpLeg -15.668954 6.491205 -3.573702
LeftLeg -5.722979 -0.000000 0.000000
LeftFoot -20.015557 15.515220 -12.315661
LeftToeBase 37.233881 -0.000000 -0.000000
RightUpLeg 1.499626 -20.412862 0.672953
RightLeg 136.100077 -0.000000 -0.000000
RightFoot 7.616680 -39.196760 -3.057858
RightToeBase 22.692113 -0.000000 -0.000000
584
root 17.447992 36.002051 -18.951573 71.736071 -80.826719 -50.116686
Spine -24.138208 -14.325297 0.293454
Head 9.423511 2.119840 15.340860
LeftShoulder -11.632525 -21.553989 3.558895
LeftArm -11.688297 12.492837 -61.795153
LeftForeArm 0.464630 -0.000000 5.277728
LeftHand -0.859319 -0.000000 -3.993653
LeftHandThumb1 -26.253704 0.000000 33.147579
RightShoulder -21.881643 -21.644022 14.959219
RightArm -11.003534 5.228035 70.958157
RightForeArm -26.761868 -0.000000 9.187751
RightHand -6.872176 -0.000000 17.143611
RightHandThumb1 -24.326973 -0.000000 -32.862282
LeftUpLeg -15.864822 6.202450 -3.494409
LeftLeg -5.671722 -0.000000 0.000000
LeftFoot -19.610227 15.958049 -11.833858
LeftToeBase 35.324581 -0.000000 -0.000000
RightUpLeg 1.701096 -19.958921 0.633837
RightLeg 135.810812 -0.000000 -0.000000
RightFoot 7.949451 -39.703642 -3.183500
RightToeBase 22.435352 -0.000000 -0.000000
585
root 17.450716 35.999145 -18.956306 72.385604 -80.854939 -50.635356
Spine -24.225141 -14.243358 0.316249
Head 9.270351 2.120081 15.319002
LeftShoulder -11.612163 -21.506658 3.577607
LeftArm -11.745631 12.426936 -61.719204
LeftForeArm 0.434596 -0.000000 5.162938
LeftHand -0.653730 -0.000000 -4.208261
LeftHandThumb1 -26.253704 0.000000 33.147579
RightShoulder -21.913370 -21.722120 14.739756
RightArm -11.038334 5.289119 70.827885
RightForeArm -27.380247 0.000000 9.257803
RightHand -6.932901 -0.000000 17.330358
RightHandThumb1 -24.326973 -0.000000 -32.862282
LeftUpLeg -16.004311 5.882039 -3.414538
LeftLeg -5.642737 -0.000000 0.000000
LeftFoot -19.245949 16.405315 -11.352407
LeftToeBase 33.399665 -0.000000 -0.000000
RightUpLeg 1.993312 -19.359505 0.572520
RightLeg 135.574480 -0.000000 -0.000000
RightFoot 7.926064 -39.953389 -2.966505
RightToeBase 22.219383 -0.000000 -0.000000
586
root 17.459053 35.996114 -18.957624 72.928240 -80.896187 -50.979764
Spine -24.381365 -14.165872 0.346692
Head 9.110428 2.153396 15.287227
LeftShoulder -11.587196 -21.514851 3.617535
LeftArm -11.879228 12.428793 -61.694165
LeftForeArm 0.448892 -0.000000 5.120436
LeftHand -0.818766 -0.000000 -4.175871
LeftHandThumb1 -26.253704 0.000000 33.147579
RightShoulder -21.948994 -21.845558 14.531261
RightArm -11.075175 5.429213 70.659526
RightForeArm -28.001161 -0.000000 9.402631
RightHand -6.884953 0.000000 17.629299
RightHandThumb1 -24.326973 -0.000000 -32.862282
LeftUpLeg -16.260256 5.435686 -3.356503
LeftLeg -5.522290 -0.000000 0.000000
LeftFoot -18.871390 17.034793 -10.802668
LeftToeBase 31.310999 -0.000000 -0.000000
RightUpLeg 2.272204 -18.571556 0.561782
RightLeg 135.481124 -0.000000 -0.000000
RightFoot 7.896862 -39.304319 -3.402517
RightToeBase 22.571522 -0.000000 -0.000000
587
root 17.469704 35.995054 -18.959457 73.300661 -80.868812 -51.101841
Spine -24.614350 -14.166427 0.500796
Head 8.989795 2.190128 15.182631
LeftShoulder -11.626208 -21.479929 3.615349
LeftArm -11.951206 12.400486 -61.629555
LeftForeArm 0.571955 -0.000000 5.072691
LeftHand -0.907471 -0.000000 -4.313759
LeftHandThumb1 -26.253704 0.000000 33.147579
RightShoulder -21.936241 -21.961319 14.265484
RightArm -11.121323 5.501192 70.503269
RightForeArm -28.822000 0.000000 9.474031
RightHand -6.815234 -0.000000 17.751853
RightHandThumb1 -24.326973 -0.000000 -32.862282
LeftUpLeg -16.603118 4.852328 -3.209841
LeftLeg -5.349343 -0.000000 0.000000
LeftFoot -18.489703 17.761858 -10.134366
LeftToeBase 29.538785 -0.000000 -0.000000
RightUpLeg 2.459289 -17.967197 0.620078
RightLeg 135.278988 -0.000000 -0.000000
RightFoot 7.945900 -39.316625 -3.547437
RightToeBase 22.654455 -0.000000 -0.000000
588
root 17.477122 35.991852 -18.961785 74.208167 -80.915332 -51.816941
Spine -24.778412 -14.056584 0.567540
Head 8.862949 2.223853 15.127891
LeftShoulder -11.622090 -21.428738 3.620963
LeftArm -12.020384 12.400011 -61.571618
LeftForeArm 0.587156 -0.000000 4.999770
LeftHand -0.824297 -0.000000 -4.418252
LeftHandThumb1 -26.253704 0.000000 33.147579
RightShoulder -21.927086 -22.046645 14.040522
RightArm -11.178614 5.512777 70.312736
RightForeArm -29.444916 -0.000000 9.563227
RightHand -6.802605 -0.000000 18.062954
RightHandThumb1 -24.326973 -0.000000 -32.862282
LeftUpLeg -16.834909 4.356520 -3.078249
LeftLeg -5.260434 -0.000000 0.000000
LeftFoot -18.330712 18.415135 -9.785131
LeftToeBase 28.295513 -0.000000 -0.000000
RightUpLeg 2.765657 -17.151875 0.611393
RightLeg 135.055966 -0.000000 -0.000000
RightFoot 7.848079 -39.232586 -3.307848
RightToeBase 22.023821 -0.000000 -0.000000
589
root 17.475114 35.987884 -18.963403 74.991007 -80.942243 -52.487741
Spine -24.855492 -13.946654 0.627687
Head 8.729945 2.242335 15.082719
LeftShoulder -11.633178 -21.410751 3.610877
LeftArm -12.066214 12.401567 -61.504743
LeftForeArm 0.605136 -0.000000 4.840540
LeftHand -0.719419 -0.000000 -4.489127
LeftHandThumb1 -26.253704 0.000000 33.147579
RightShoulder -21.932071 -22.149117 13.837004
RightArm -11.193793 5.439974 70.122597
RightForeArm -29.961470 -0.000000 9.617561
RightHand -6.783398 -0.000000 18.189523
RightHandThumb1 -24.326973 -0.000000 -32.862282
LeftUpLeg -16.977650 3.984496 -2.950178
LeftLeg -5.177674 -0.000000 0.000000
LeftFoot -18.404639 18.963793 -9.698679
LeftToeBase 27.911726 -0.000000 -0.000000
RightUpLeg 3.076301 -16.621552 0.587142
RightLeg 134.647744 -0.000000 -0.000000
RightFoot 8.338062 -39.971688 -3.612309
RightToeBase 22.297499 -0.000000 -0.000000
590
root 17.472269 35.985522 -18.966943 75.890180 -80.979601 -53.270662
Spine -24.947204 -13.810769 0.669175
Head 8.630236 2.279111 15.065568
LeftShoulder -11.620703 -21.398947 3.586981
LeftArm -12.144960 12.431302 -61.426950
LeftForeArm 0.551409 -0.000000 4.760757
LeftHand -0.791343 -0.000000 -4.507789
LeftHandThumb1 -26.253704 0.000000 33.147579
RightShoulder -21.929989 -22.252774 13.672660
RightArm -11.261833 5.391849 69.913530
RightForeArm -30.698969 -0.000000 9.754755
RightHand -6.808134 -0.000000 18.369346
RightHandThumb1 -24.326973 -0.000000 -32.862282
LeftUpLeg -17.131105 3.749211 -2.850015
LeftLeg -5.076662 -0.000000 0.000000
LeftFoot -18.536440 19.378475 -9.676482
LeftToeBase 27.717821 -0.000000 -0.000000
RightUpLeg 3.415863 -15.946034 0.598312
RightLeg 134.339236 -0.000000 -0.000000
RightFoot 8.385978 -40.311762 -3.495969
RightToeBase 21.986411 -0.000000 -0.000000
591
root 17.476520 35.986972 -18.970371 77.220468 -81.014089 -54.364524
Spine -25.191849 -13.623571 0.775051
Head 8.556551 2.325783 15.026183
LeftShoulder -11.628392 -21.373092 3.571251
LeftArm -12.251484 12.417836 -61.352374
LeftForeArm 0.664796 0.000000 4.723906
LeftHand -0.728297 -0.000000 -4.611088
LeftHandThumb1 -26.253704 0.000000 33.147579
RightShoulder -22.010697 -22.417078 13.467232
RightArm -11.177944 5.221793 69.750346
RightForeArm -31.251555 -0.000000 9.716719
RightHand -6.746969 -0.000000 18.534142
RightHandThumb1 -24.326973 -0.000000 -32.862282
LeftUpLeg -17.427129 3.671968 -2.776133
LeftLeg -4.950859 -0.000000 0.000000
LeftFoot -18.597972 19.551504 -9.576993
LeftToeBase 27.432258 -0.000000 -0.000000
RightUpLeg 3.608097 -15.100941 0.689514
RightLeg 134.077997 -0.000000 -0.000000
RightFoot 8.440514 -40.391298 -3.529163
RightToeBase 22.130398 -0.000000 -0.000000
592
root 17.477422 35.987453 -18.970192 78.412107 -81.094811 -55.334802
Spine -25.419242 -13.446438 0.815950
Head 8.454491 2.341473 14.977799
LeftShoulder -11.654858 -21.303347 3.557218
LeftArm -12.286732 12.461813 -61.287003
LeftForeArm 0.752401 -0.000000 4.633954
LeftHand -0.668984 -0.000000 -4.684833
LeftHandThumb1 -26.253704 0.000000 33.147579
RightShoulder -22.057238 -22.548217 13.265022
RightArm -11.167924 4.988067 69.586600
RightForeArm -31.870924 -0.000000 9.728772
RightHand -6.694063 -0.000000 18.500933
RightHandThumb1 -24.326973 -0.000000 -32.862282
LeftUpLeg -17.685248 3.670144 -2.772578
LeftLeg -4.845426 -0.000000 0.000000
LeftFoot -18.646601 19.568330 -9.534965
LeftToeBase 27.234036 -0.000000 -0.000000
RightUpLeg 3.839241 -14.317276 0.705247
RightLeg 133.797589 -0.000000 -0.000000
RightFoot 8.480285 -40.631833 -3.469775
RightToeBase 22.237751 -0.000000 -0.000000
